# xmcd
# Track frame offsets:
# 150
# 20105
# 38223
# 55594
# 69986
# 86187
# 102581
# 120484
# 136217
# 157593
#
# Disc length: 2365 seconds
# Revision: 0
# Processed by: cddbd v1.5.1PL2 Copyright (c) Steve Scherf et al.
# Submitted via: VisiTrax 2.9.10.228 - For more info visit www.synapsa.com
#
DISCID=7c093b0a
DTITLE=Honeybrowne - Something To Believe In
DYEAR=2005
DGENRE=
TTITLE0=Something To Believe In
TTITLE1=March Of Life
TTITLE2=I'm Here
TTITLE3=8 Roses
TTITLE4=Never Forget You
TTITLE5=My Turn To Hear You Cry
TTITLE6=One Heart Ain't Enough
TTITLE7=New Friends
TTITLE8=This Time
TTITLE9=Take Me Home Tonight
EXTD=
EXTT0=
EXTT1=
EXTT2=
EXTT3=
EXTT4=
EXTT5=
EXTT6=
EXTT7=
EXTT8=
EXTT9=
PLAYORDER=
